<?xml version="1.0" encoding="UTF-8"?>
<svg width="202px" height="162px" viewBox="0 0 202 162" version="1.1" xmlns="http://www.w3.org/2000/svg" xmlns:xlink="http://www.w3.org/1999/xlink">
    <g id="Page-1" stroke="none" stroke-width="1" fill="none" fill-rule="evenodd">
        <g id="dashboard_-_filter_page" transform="translate(-905.000000, -123.000000)">
            <g id="Group-2" transform="translate(905.000000, 123.000000)">
                <g id="Group-11" transform="translate(13.596154, 3.890042)">
                    <ellipse id="Oval-3" fill="#6DD400" cx="115.567308" cy="109.893681" rx="47.5865385" ry="47.6530121"></ellipse>
                    <g id="1370168" fill-rule="nonzero">
                        <path d="M100.357907,76.3467431 C98.3669063,76.3467431 96.5579256,75.1869289 95.7238747,73.3766699 L80.4042647,40.1378151 L89.6773165,35.8518702 L98.5776011,55.1617174 L101.956193,39.3675183 C102.545888,36.6046884 105.26123,34.845616 108.020206,35.4373833 C110.777935,36.0291509 112.5358,38.7482849 111.944858,41.5098664 L105.354733,72.3042474 C104.893449,74.4578314 103.109403,76.0733318 100.923915,76.3167802 C100.735661,76.3367555 100.547407,76.3467431 100.357907,76.3467431 L100.357907,76.3467431 Z" id="Shape" fill="#0D4247"></path>
                        <path d="M64.3303934,92.0460596 L61.803306,92.0460596 C57.5732087,92.0460596 54.143501,88.611561 54.143501,84.3755547 L54.143501,81.8187197 L64.3565743,81.8187197 C92.3664765,81.8224651 118.669628,95.3007808 135.056425,118.048872 C136.567441,120.336041 136.007667,123.410984 133.787271,125.016497 C131.566875,126.622009 128.47752,126.187547 126.784484,124.032714 C112.315132,103.94508 89.088868,92.0448112 64.3565743,92.0460596 L64.3303934,92.0460596 Z" id="Shape" fill="#1D1D1D"></path>
                        <path d="M54.143501,84.3755547 C54.143501,88.611561 57.5732087,92.0460596 61.803306,92.0460596 L64.3303934,92.0460596 C63.7269843,117.982704 44.2558197,139.568483 18.5510902,142.799484 C17.1198636,142.950547 15.6911303,142.489867 14.6164638,141.531054 C13.5417973,140.572241 12.9221807,139.203935 12.9084668,137.761969 L12.9084668,137.659596 C12.9483616,135.069053 14.9057012,132.910475 17.478917,132.623331 C38.6780257,129.867991 54.4464524,111.635561 54.143501,90.2308065 L54.143501,84.3755547 Z" id="Shape" fill="#1D1D1D"></path>
                        <path d="M64.3565743,35.7956899 L64.3565743,46.0230298 C45.0836372,46.0479989 28.2916592,59.1854866 23.6065117,77.9073115 C22.9806616,80.4079661 20.5919594,82.0521808 18.0349508,81.7400669 C15.4791892,81.4279535 13.5542643,79.2581392 13.5467838,76.6800806 C13.5480308,76.2568544 13.6003926,75.8373737 13.7001296,75.4266322 C19.5210328,52.1516933 40.3972431,35.8194106 64.3565743,35.7956899 Z" id="Shape" fill="#155D63"></path>
                        <polygon id="Shape" fill="#155D63" points="89.8892576 35.7956899 79.6761843 81.8187197 54.143501 81.8187197 61.803306 35.7956899"></polygon>
                        <path d="M77.965694,2.6712031e-16 C80.224738,-0.00624225694 82.3927721,0.88765129 83.9935517,2.48567316 C85.5930846,4.08244665 86.4932112,6.25226056 86.4932112,8.51446027 C86.4944579,8.97014611 86.4433427,9.42458358 86.3398658,9.86903341 L69.4631107,9.86903341 L69.463111,8.51446027 C69.4618643,3.81153177 73.2693258,-0.00124845458 77.965694,2.6712031e-16 Z" id="Shape" fill="#1D1D1D"></path>
                        <path d="M69.463111,9.86903341 L86.3398658,9.86903341 C86.2825168,10.2610483 86.1890133,10.6455723 86.0593551,11.0201087 L83.6594326,25.5683499 L69.463111,25.5683499 L69.463111,9.86903341 Z" id="Shape" fill="#E5E5E5"></path>
                        <polygon id="Shape" fill="#0D4247" points="99.7195899 14.9827034 109.932663 14.9827034 109.932663 25.2100433 99.7195899 25.2100433"></polygon>
                        <polygon id="Shape" fill="#F7B500" points="132.912078 7.31219842 132.912078 32.8805483 109.932663 25.2100433 109.932663 14.9827034"></polygon>
                        <polygon id="Shape" fill="#0D4247" points="104.826127 25.2100433 109.932663 25.2100433 109.932663 32.8805483 104.826127 32.8805483"></polygon>
                        <g id="Group" transform="translate(0.000000, 35.795690)">
                            <polygon id="Shape" fill="#6DD400" points="79.2934433 0 76.6628789 10.4832731 71.709688 9.25604245 74.0335612 0"></polygon>
                            <path d="M42.7996589,32.1314756 L39.1891779,28.5159511 L41.5043243,26.197571 C45.4663782,22.2287338 51.3770447,20.9440741 56.6257068,22.9091418 C59.1951823,23.8704517 62.060129,23.6319968 64.4363639,22.2586967 C66.8125992,20.8853967 68.4520266,18.5208238 68.9058305,15.8116772 L69.1152783,14.553235 L74.150752,15.3971903 L73.9413042,16.6531358 C73.2356648,20.8704152 70.6848898,24.5508593 66.987139,26.6882136 C63.2881413,28.8255678 58.8298954,29.1963588 54.83044,27.6982133 C51.4630681,26.4410197 47.6730604,27.2637514 45.1272722,29.8056046 L42.7996589,32.1314756 Z" id="Shape" fill="#6DD400"></path>
                            <polygon id="Shape" fill="#F7B500" points="0.142125128 55.8920632 35.8878817 55.8920632 35.8878817 78.9035781 0.142125128 78.9035781"></polygon>
                        </g>
                    </g>
                </g>
                <polygon id="Shape" fill="#2D8E43" fill-rule="nonzero" points="17.6670512 0.710701541 14.5348638 3.84726434 11.4026764 0.710701541 7.97714205 4.14102098 11.1093295 7.27758378 7.97714205 10.4141466 11.4026764 13.844466 14.5348638 10.7079032 17.6670512 13.844466 21.0925856 10.4141466 17.9603981 7.27758378 21.0925856 4.14102098"></polygon>
                <polygon id="Shape" fill="#F8E71C" fill-rule="nonzero" points="7.2674319 50.9430865 2.4224773 50.9430865 2.4224773 53.3689477 0 53.3689477 0 58.2206702 2.4224773 58.2206702 2.4224773 60.6465315 7.2674319 60.6465315 7.2674319 58.2206702 9.6899092 58.2206702 9.6899092 53.3689477 7.2674319 53.3689477"></polygon>
                <polygon id="Shape" fill="#155D63" fill-rule="nonzero" points="189.584804 9.70344504 189.584804 4.85172252 184.739849 4.85172252 184.739849 0 179.894895 0 179.894895 4.85172252 175.04994 4.85172252 175.04994 9.70344504 179.894895 9.70344504 179.894895 14.5551676 184.739849 14.5551676 184.739849 9.70344504"></polygon>
                <polygon id="Shape" fill="#000000" fill-rule="nonzero" points="167.237451 28.1486544 172.082405 28.1486544 172.082405 33.0003769 167.237451 33.0003769"></polygon>
                <polygon id="Shape" fill="#000000" fill-rule="nonzero" points="24.224773 29.1103351 29.0697276 29.1103351 29.0697276 33.9620576 24.224773 33.9620576"></polygon>
                <path d="M194.429758,48.5172252 C190.416348,48.5172252 187.162327,51.7746074 187.162327,55.794809 C187.162327,59.8138264 190.416348,63.0723927 194.429758,63.0723927 C198.44317,63.0723927 201.69719,59.8138264 201.69719,55.794809 C201.69719,51.7746074 198.44317,48.5172252 194.429758,48.5172252 Z M194.429758,58.2206702 C193.091955,58.2206702 192.007281,57.1344814 192.007281,55.794809 C192.007281,54.4551368 193.091955,53.3689477 194.429758,53.3689477 C195.767562,53.3689477 196.852236,54.4551368 196.852236,55.794809 C196.852236,57.1344814 195.767562,58.2206702 194.429758,58.2206702 Z" id="Shape" fill="#6DD400" fill-rule="nonzero"></path>
            </g>
        </g>
    </g>
</svg>