<?xml version="1.0" encoding="UTF-8"?>
<svg width="26px" height="34px" viewBox="0 0 26 34" version="1.1" xmlns="http://www.w3.org/2000/svg" xmlns:xlink="http://www.w3.org/1999/xlink">
    <g id="mobile" stroke="none" stroke-width="1" fill="none" fill-rule="evenodd">
        <g id="search_job_page" transform="translate(-20.000000, -46.000000)" fill="#155D63" fill-rule="nonzero">
            <g id="149992" transform="translate(20.000000, 46.000000)">
                <path d="M23.1818261,24.2416087 L17.7823043,21.5421304 C17.2730435,21.2872174 16.9565217,20.7751304 16.9565217,20.2053913 L16.9565217,18.2943913 C17.0859565,18.1361304 17.2221739,17.9558261 17.362913,17.7568696 C18.0632174,16.7677391 18.6244783,15.6666957 19.0325652,14.4791739 C19.830087,14.1134783 20.3478261,13.325 20.3478261,12.4347826 L20.3478261,10.173913 C20.3478261,9.6296087 20.1443478,9.10226087 19.7826087,8.69021739 L19.7826087,5.68382609 C19.8142609,5.37295652 19.9386087,3.52243478 18.6001739,1.99578261 C17.4392174,0.671478261 15.5553478,0 13,0 C10.4446522,0 8.56078261,0.671478261 7.39982609,1.99521739 C6.0613913,3.52186957 6.18573913,5.37295652 6.2173913,5.68382609 L6.2173913,8.69021739 C5.85565217,9.10226087 5.65217391,9.6296087 5.65217391,10.173913 L5.65217391,12.4347826 C5.65217391,13.1226522 5.96473913,13.7641739 6.49830435,14.1920435 C7.01604348,16.242087 8.09956522,17.7868261 8.47826087,18.2825217 L8.47826087,20.1528261 C8.47826087,20.6999565 8.17982609,21.2018696 7.69995652,21.4641304 L2.65765217,24.2144783 C1.01795652,25.1092174 0,26.824087 0,28.6915652 L0,30.5217391 C0,33.2042609 8.50369565,33.9130435 13,33.9130435 C17.4963043,33.9130435 26,33.2042609 26,30.5217391 L26,28.8017826 C26,26.8585652 24.9198696,25.110913 23.1818261,24.2416087 Z" id="Shape"></path>
            </g>
        </g>
    </g>
</svg>