<?xml version="1.0" encoding="UTF-8"?>
<svg width="20px" height="20px" viewBox="0 0 20 20" version="1.1" xmlns="http://www.w3.org/2000/svg" xmlns:xlink="http://www.w3.org/1999/xlink">
    <g id="mobile" stroke="none" stroke-width="1" fill="none" fill-rule="evenodd">
        <g id="job_applicant_on_boarding_page_-_step_01" transform="translate(-30.000000, -189.000000)">
            <g id="Group" transform="translate(31.000000, 190.000000)">
                <circle id="Oval" stroke="#CFCFD7" cx="9" cy="9" r="9"></circle>
                <g id="109526" transform="translate(5.000000, 5.000000)" fill="#CFCFD7" fill-rule="nonzero">
                    <path d="M7.56369106,3.44087805 L4.55682927,3.44087805 L4.55682927,0.434 C4.55682927,0.29702439 4.37082927,1.62601626e-05 3.99884553,1.62601626e-05 C3.62686179,1.62601626e-05 3.44086179,0.29704065 3.44086179,0.434 L3.44086179,3.44089431 L0.43398374,3.44089431 C0.29702439,3.44087805 0,3.62687805 0,3.99884553 C0,4.37081301 0.29702439,4.55682927 0.43398374,4.55682927 L3.44087805,4.55682927 L3.44087805,7.56372358 C3.44087805,7.70066667 3.62686179,7.99770732 3.99886179,7.99770732 C4.37086179,7.99770732 4.55684553,7.70066667 4.55684553,7.56372358 L4.55684553,4.55682927 L7.56373984,4.55682927 C7.70068293,4.55682927 7.99772358,4.37084553 7.99772358,3.99884553 C7.99772358,3.62684553 7.70065041,3.44087805 7.56369106,3.44087805 Z" id="Shape"></path>
                </g>
            </g>
        </g>
    </g>
</svg>