<?xml version="1.0" encoding="UTF-8"?>
<svg width="27px" height="19px" viewBox="0 0 27 19" version="1.1" xmlns="http://www.w3.org/2000/svg" xmlns:xlink="http://www.w3.org/1999/xlink">
    <g id="mobile" stroke="none" stroke-width="1" fill="none" fill-rule="evenodd">
        <g id="share_resume_2_page" transform="translate(-16.000000, -52.000000)" fill="#155D63" fill-rule="nonzero">
            <g id="109617" transform="translate(29.500000, 61.500000) scale(-1, 1) translate(-29.500000, -61.500000) translate(16.000000, 52.000000)">
                <path d="M18.1814862,0.285746545 C17.8136551,-0.0952488483 17.2014608,-0.0952488483 16.8207685,0.285746545 C16.4529374,0.653870472 16.4529374,1.26655225 16.8207685,1.63381808 L23.7203874,8.53893054 L0.952588123,8.53893054 C0.421848206,8.53978864 0,8.96197272 0,9.49313522 C0,10.0242977 0.421848206,10.4602114 0.952588123,10.4602114 L23.7203874,10.4602114 L16.8207685,17.3524524 C16.4529374,17.7334477 16.4529374,18.3469876 16.8207685,18.7142535 C17.2014608,19.0952488 17.8145125,19.0952488 18.1814862,18.7142535 L26.7144808,10.1744648 C27.0951731,9.80634089 27.0951731,9.19365911 26.7144808,8.82639328 L18.1814862,0.285746545 Z" id="Shape"></path>
            </g>
        </g>
    </g>
</svg>