<?xml version="1.0" encoding="UTF-8"?>
<svg width="16px" height="16px" viewBox="0 0 16 16" version="1.1" xmlns="http://www.w3.org/2000/svg" xmlns:xlink="http://www.w3.org/1999/xlink">
    <g id="mobile" stroke="none" stroke-width="1" fill="none" fill-rule="evenodd">
        <g id="job_applicant_on_boarding_page_-_step_05" transform="translate(-42.000000, -417.000000)">
            <g id="Group" transform="translate(42.000000, 417.000000)">
                <circle id="Oval-2" fill="#67D321" cx="8" cy="8" r="8"></circle>
                <g id="128384" transform="translate(3.555556, 4.444444)" fill="#FFFFFF" fill-rule="nonzero">
                    <path d="M0.104142012,3.81854043 C0.0347140039,3.74911243 0,3.64497041 0,3.57554241 C0,3.5061144 0.0347140039,3.40197239 0.104142012,3.33254438 L0.590138067,2.84654832 C0.728994083,2.70769231 0.937278107,2.70769231 1.07613412,2.84654832 L1.11084813,2.88126233 L3.02011834,4.92938856 C3.08954635,4.99881657 3.19368836,4.99881657 3.26311637,4.92938856 L7.9147929,0.104142012 L7.9495069,0.104142012 L7.9495069,0.104142012 C8.08836292,-0.0347140039 8.29664694,-0.0347140039 8.43550296,0.104142012 L8.92149901,0.590138067 C9.06035503,0.728994083 9.06035503,0.937278107 8.92149901,1.07613412 L8.92149901,1.07613412 L3.36725838,6.83865878 C3.29783037,6.90808679 3.22840237,6.94280079 3.12426036,6.94280079 C3.02011834,6.94280079 2.95069034,6.90808679 2.88126233,6.83865878 L0.17357002,3.92268245 L0.104142012,3.81854043 Z" id="Shape"></path>
                </g>
            </g>
        </g>
    </g>
</svg>