<?xml version="1.0" encoding="UTF-8"?>
<svg width="18px" height="18px" viewBox="0 0 18 18" version="1.1" xmlns="http://www.w3.org/2000/svg" xmlns:xlink="http://www.w3.org/1999/xlink">
    <g id="mobile" stroke="none" stroke-width="1" fill="none" fill-rule="evenodd">
        <g id="login_page" transform="translate(-35.000000, -444.000000)">
            <g id="Group" transform="translate(35.000000, 444.000000)">
                <circle id="Oval-2" fill="#67D321" cx="9" cy="9" r="9"></circle>
                <g id="128384" transform="translate(4.000000, 5.000000)" fill="#FFFFFF" fill-rule="nonzero">
                    <path d="M0.117159763,4.29585799 C0.0390532544,4.21775148 0,4.10059172 0,4.02248521 C0,3.9443787 0.0390532544,3.82721893 0.117159763,3.74911243 L0.663905325,3.20236686 C0.820118343,3.04615385 1.05443787,3.04615385 1.21065089,3.20236686 L1.24970414,3.24142012 L3.39763314,5.54556213 C3.47573964,5.62366864 3.59289941,5.62366864 3.67100592,5.54556213 L8.90414201,0.117159763 L8.94319527,0.117159763 L8.94319527,0.117159763 C9.09940828,-0.0390532544 9.33372781,-0.0390532544 9.48994083,0.117159763 L10.0366864,0.663905325 C10.1928994,0.820118343 10.1928994,1.05443787 10.0366864,1.21065089 L10.0366864,1.21065089 L3.78816568,7.69349112 C3.71005917,7.77159763 3.63195266,7.81065089 3.5147929,7.81065089 C3.39763314,7.81065089 3.31952663,7.77159763 3.24142012,7.69349112 L0.195266272,4.41301775 L0.117159763,4.29585799 Z" id="Shape"></path>
                </g>
            </g>
        </g>
    </g>
</svg>