<?xml version="1.0" encoding="UTF-8"?>
<svg width="31px" height="32px" viewBox="0 0 31 32" version="1.1" xmlns="http://www.w3.org/2000/svg" xmlns:xlink="http://www.w3.org/1999/xlink">
    <g id="mobile" stroke="none" stroke-width="1" fill="none" fill-rule="evenodd">
        <g id="job_matched_page" transform="translate(-330.000000, -326.000000)">
            <g id="Group" transform="translate(42.000000, 317.000000)">
                <g id="Group-2" transform="translate(288.200000, 9.900000)">
                    <g id="Group-5">
                        <circle id="Oval-2" fill="#292F7A" cx="15.4" cy="15.4" r="15.4"></circle>
                        <g id="151776" transform="translate(11.000000, 6.600000)" fill="#FFFFFF" fill-rule="nonzero">
                            <path d="M7.386148,15.328544 L7.146062,16.309986 C6.425804,16.59427 5.85046,16.81064 5.422032,16.959404 C4.993142,17.10863 4.494798,17.182858 3.927,17.182858 C3.055052,17.182858 2.376836,16.96926 1.893122,16.54499 C1.409408,16.119026 1.167474,15.579256 1.167474,14.924448 C1.167474,14.670964 1.18503,14.410242 1.221528,14.144592 C1.258334,13.878634 1.316854,13.579104 1.396934,13.244308 L2.297064,10.058356 C2.377144,9.753282 2.445212,9.464224 2.499728,9.190874 C2.555014,8.919218 2.581656,8.669276 2.581656,8.444282 C2.581656,8.037414 2.497418,7.752822 2.329712,7.592816 C2.162006,7.433272 1.841994,7.352268 1.366904,7.352268 C1.13421,7.352268 0.895048,7.389536 0.651266,7.461608 C0.406406,7.533988 0.19712,7.603904 0.021406,7.668892 L0.262108,6.68668 C0.851774,6.446594 1.415414,6.241004 1.954568,6.070372 C2.493722,5.899278 3.003154,5.813654 3.48502,5.813654 C4.350962,5.813654 5.019168,6.02294 5.488406,6.441512 C5.957644,6.860392 6.192186,7.403396 6.192186,8.072526 C6.192186,8.210972 6.176786,8.454908 6.143676,8.803564 C6.111336,9.15299 6.051122,9.473156 5.963342,9.76437 L5.067062,12.93754 C4.993604,13.19241 4.927538,13.483778 4.870096,13.811644 C4.810806,14.137354 4.78247,14.386218 4.78247,14.553154 C4.78247,14.974498 4.87641,15.26217 5.064752,15.415092 C5.25448,15.568014 5.581268,15.64409 6.045424,15.64409 C6.263334,15.64409 6.511274,15.605436 6.78678,15.529514 C7.061516,15.453592 7.26187,15.38691 7.386148,15.328544 Z M7.613452,2.00662 C7.613452,2.55948 7.40509,3.031644 6.986364,3.419878 C6.568716,3.809498 6.065444,4.004462 5.476702,4.004462 C4.886112,4.004462 4.381608,3.809498 3.959186,3.419878 C3.537534,3.03149 3.326246,2.55948 3.326246,2.00662 C3.326246,1.454838 3.537534,0.981904 3.959186,0.588742 C4.380838,0.196196 4.886266,0 5.476702,0 C6.06529,0 6.568716,0.196658 6.986364,0.588742 C7.405398,0.981904 7.613452,1.454992 7.613452,2.00662 Z" id="Shape"></path>
                        </g>
                    </g>
                </g>
            </g>
        </g>
    </g>
</svg>