<?xml version="1.0" encoding="UTF-8"?>
<svg width="36px" height="36px" viewBox="0 0 36 36" version="1.1" xmlns="http://www.w3.org/2000/svg" xmlns:xlink="http://www.w3.org/1999/xlink">
    <g id="mobile" stroke="none" stroke-width="1" fill="none" fill-rule="evenodd">
        <g id="search_job_page" transform="translate(-340.000000, -451.000000)">
            <g id="Group" transform="translate(18.000000, 100.000000)">
                <g id="Group-4" transform="translate(322.560000, 351.540000)">
                    <circle id="Oval-2" fill="#FFFFFF" cx="17.64" cy="17.64" r="17.64"></circle>
                    <g id="151776" transform="translate(12.600000, 7.560000)" fill="#1E2362" fill-rule="nonzero">
                        <path d="M8.4604968,17.5581504 L8.1854892,18.6823476 C7.3604664,19.007982 6.701436,19.255824 6.2106912,19.4262264 C5.7194172,19.597158 5.1485868,19.6821828 4.4982,19.6821828 C3.4994232,19.6821828 2.7225576,19.437516 2.1684852,18.951534 C1.6144128,18.4636116 1.3372884,17.8453296 1.3372884,17.0952768 C1.3372884,16.8049224 1.357398,16.5062772 1.3992048,16.2019872 C1.4413644,15.8973444 1.5083964,15.5542464 1.6001244,15.1707528 L2.6311824,11.5213896 C2.7229104,11.1719412 2.8008792,10.8408384 2.8633248,10.5277284 C2.9266524,10.2165588 2.9571696,9.9302616 2.9571696,9.6725412 C2.9571696,9.2064924 2.8606788,8.8805052 2.6685792,8.6972256 C2.4764796,8.5144752 2.1099204,8.4216888 1.5657264,8.4216888 C1.299186,8.4216888 1.0252368,8.4643776 0.7459956,8.5469328 C0.4655196,8.6298408 0.225792,8.7099264 0.0245196,8.7843672 L0.3002328,7.659288 C0.9756684,7.3842804 1.6212924,7.1487864 2.2388688,6.9533352 C2.8564452,6.7573548 3.4399764,6.6592764 3.991932,6.6592764 C4.9838292,6.6592764 5.7492288,6.899004 6.2867196,7.3784592 C6.8242104,7.8582672 7.0928676,8.4802536 7.0928676,9.2467116 C7.0928676,9.4052952 7.0752276,9.6847128 7.0373016,10.0840824 C7.0002576,10.484334 6.9312852,10.8510696 6.8307372,11.184642 L5.8040892,14.819364 C5.7199464,15.111306 5.6442708,15.4450548 5.5784736,15.8206104 C5.5105596,16.1936964 5.478102,16.4787588 5.478102,16.6699764 C5.478102,17.1526068 5.585706,17.482122 5.8014432,17.6572872 C6.018768,17.8324524 6.3930888,17.919594 6.9247584,17.919594 C7.1743644,17.919594 7.4583684,17.8753176 7.773948,17.7883524 C8.0886456,17.7013872 8.318142,17.625006 8.4604968,17.5581504 Z M8.7208632,2.298492 C8.7208632,2.931768 8.482194,3.4726104 8.0025624,3.9173148 C7.5241656,4.3636068 6.9476904,4.5869292 6.2733132,4.5869292 C5.5968192,4.5869292 5.0189328,4.3636068 4.5350676,3.9173148 C4.0520844,3.472434 3.8100636,2.931768 3.8100636,2.298492 C3.8100636,1.6664508 4.0520844,1.1247264 4.5350676,0.6743772 C5.0180508,0.2247336 5.5969956,0 6.2733132,0 C6.947514,0 7.5241656,0.2252628 8.0025624,0.6743772 C8.4825468,1.1247264 8.7208632,1.6666272 8.7208632,2.298492 Z" id="Shape"></path>
                    </g>
                </g>
            </g>
        </g>
    </g>
</svg>