<?xml version="1.0" encoding="UTF-8"?>
<svg width="20px" height="28px" viewBox="0 0 20 28" version="1.1" xmlns="http://www.w3.org/2000/svg" xmlns:xlink="http://www.w3.org/1999/xlink">
    <g id="mobile" stroke="none" stroke-width="1" fill="none" fill-rule="evenodd">
        <g id="search_job_page" transform="translate(-197.000000, -365.000000)" fill="#FFFFFF" fill-rule="nonzero">
            <g id="Group" transform="translate(18.000000, 100.000000)">
                <g id="263072" transform="translate(178.920000, 265.860000)">
                    <path d="M20.0457252,25.395739 L16.5203888,18.0550941 C16.4500377,17.9086216 16.3281376,17.7963893 16.1819515,17.7351577 L14.428136,16.966601 L17.4670209,11.9530137 C17.4742806,11.9409833 17.4811225,11.9287987 17.487651,11.916357 C18.0918242,10.7555273 18.3981936,9.50112793 18.3981936,8.1882218 C18.3981936,5.97961725 17.518361,3.9090537 15.9207594,2.35800758 C14.3234189,0.807321334 12.2072456,-0.0302302073 9.96222591,0.000822590674 C7.78181223,0.0305900907 5.72883482,0.892716528 4.18137202,2.42849332 C2.63406591,3.96416728 1.77481119,5.99200753 1.76185865,8.1386093 C1.75392,9.45038437 2.06880249,10.7566584 2.67224456,11.9163056 C2.67872083,11.9286958 2.68556269,11.9409319 2.69282238,11.9529623 L5.73165513,16.9664982 L3.96770736,17.7392707 C3.82340145,17.8024559 3.70693306,17.9144825 3.63945451,18.0550427 L0.114222591,25.395739 C-0.00376041451,25.6412309 0.0460128497,25.9331478 0.238943005,26.1273306 C0.431820933,26.3215134 0.727013472,26.3771411 0.979117927,26.2667083 L5.3954114,24.3312553 L9.81170487,26.2667083 C9.98254259,26.3415127 10.1776141,26.3415127 10.3484518,26.2667083 L14.7647453,24.3312553 L19.1810388,26.2667083 C19.2673194,26.3044961 19.3586661,26.3229016 19.4492294,26.3229016 C19.6232008,26.3229016 19.7943519,26.2551406 19.9212137,26.127382 C20.1139872,25.9331478 20.1637082,25.6413338 20.0457252,25.395739 Z M3.83734632,11.305789 C3.32916808,10.3221762 3.07487005,9.25933768 3.08160746,8.1463725 C3.10396104,4.42265876 6.19888663,1.35125942 9.98061016,1.29969326 C11.8694873,1.27470707 13.6503047,1.97827916 14.9941306,3.28295938 C16.3383743,4.58794807 17.0786015,6.32998947 17.0786015,8.18827321 C17.0786015,9.28638035 16.8243034,10.3350806 16.3227059,11.305789 L10.6466736,20.6703669 C10.4733811,20.9562172 10.192708,20.9870643 10.0800522,20.9870643 C9.96734425,20.9870643 9.68667109,20.9562172 9.51343088,20.6703669 L3.83734632,11.305789 Z M15.0329882,23.026935 C14.8621505,22.9521306 14.667079,22.9521306 14.4962412,23.026935 L10.0799478,24.962388 L5.6636543,23.026935 C5.49281658,22.9521306 5.29774508,22.9521306 5.12690736,23.026935 L2.06749679,24.3677578 L4.7278856,18.8281751 L6.41265575,18.0901056 L8.37997927,21.3358942 C8.74056124,21.9308329 9.3760713,22.2860378 10.0798433,22.2860378 C10.7836153,22.2860378 11.4191254,21.9308329 11.7797074,21.3359456 L13.7470309,18.090157 L15.4319577,18.8284836 L18.0921898,24.3678092 L15.0329882,23.026935 Z" id="Shape"></path>
                    <path d="M10.0802089,5.22381066 C8.41967254,5.22381066 7.06879585,6.5535799 7.06879585,8.18811898 C7.06879585,9.82265806 8.41967254,11.1524273 10.0802089,11.1524273 C11.7406931,11.1524787 13.0915697,9.82265806 13.0915697,8.18811898 C13.0915697,6.5535799 11.7406931,5.22381066 10.0802089,5.22381066 Z M10.0802089,9.8534538 C9.14736497,9.85350521 8.38838798,9.10649005 8.38838798,8.18811898 C8.38838798,7.26985073 9.14731275,6.52278416 10.0802089,6.52278416 C11.0130528,6.52278416 11.7719776,7.26985073 11.7719776,8.18811898 C11.7719776,9.10638723 11.0130528,9.8534538 10.0802089,9.8534538 Z" id="Shape"></path>
                </g>
            </g>
        </g>
    </g>
</svg>