<?xml version="1.0" encoding="UTF-8"?>
<svg width="12px" height="17px" viewBox="0 0 12 17" version="1.1" xmlns="http://www.w3.org/2000/svg" xmlns:xlink="http://www.w3.org/1999/xlink">
    <g id="mobile" stroke="none" stroke-width="1" fill="none" fill-rule="evenodd">
        <g id="liked_job_page" transform="translate(-249.000000, -301.000000)" fill="#FFFFFF" fill-rule="nonzero">
            <g id="Group" transform="translate(249.000000, 301.000000)">
                <g id="Group-2">
                    <g id="263072" transform="translate(0.000000, 0.400000)">
                        <path d="M11.9319793,15.1165113 L9.83356477,10.7470798 C9.79168912,10.6598938 9.71912953,10.5930889 9.63211399,10.5566415 L8.58817617,10.0991673 L10.3970363,7.11488909 C10.4013575,7.10772814 10.4054301,7.10047539 10.4093161,7.09306962 C10.768943,6.40209958 10.9513057,5.65543329 10.9513057,4.87394155 C10.9513057,3.55929598 10.4275959,2.32681768 9.47664249,1.40357594 C8.52584456,0.480548413 7.26621762,-0.017994171 5.92989637,0.000489637306 C4.63203109,0.0182083873 3.41002073,0.531378886 2.48891192,1.44553174 C1.56789637,2.35962338 1.05643523,3.56667115 1.04872539,4.8444103 C1.044,5.62522879 1.23143005,6.40277283 1.59062176,7.09303902 C1.59447668,7.10041418 1.59854922,7.10769754 1.60287047,7.11485848 L3.41169948,10.0991061 L2.36173057,10.5590897 C2.2758342,10.5967 2.20650777,10.6633824 2.16634197,10.7470492 L0.0679896373,15.1165113 C-0.00223834197,15.2626375 0.027388601,15.4363975 0.142227979,15.5519825 C0.257036269,15.6675675 0.432746114,15.7006792 0.58280829,15.6349454 L3.2115544,14.4828901 L5.84030052,15.6349454 C5.94198964,15.6794718 6.05810363,15.6794718 6.15979275,15.6349454 L8.78853886,14.4828901 L11.417285,15.6349454 C11.4686425,15.6574381 11.5230155,15.6683938 11.5769223,15.6683938 C11.6804767,15.6683938 11.7823523,15.6280599 11.8578653,15.5520131 C11.9726114,15.4363975 12.0022073,15.2626987 11.9319793,15.1165113 Z M2.28413472,6.72963633 C1.98164767,6.14415253 1.83027979,5.51151052 1.83429016,4.84903125 C1.84759585,2.63253497 3.68981347,0.804321082 5.94083938,0.773626943 C7.06517098,0.75875421 8.12518135,1.17754712 8.92507772,1.95414249 C9.7252228,2.73092147 10.1658342,3.76785087 10.1658342,4.87397215 C10.1658342,5.52760735 10.0144663,6.15183371 9.71589637,6.72963633 L6.3373057,12.3037898 C6.23415544,12.4739388 6.06708808,12.4923002 6.00003109,12.4923002 C5.93294301,12.4923002 5.76587565,12.4739388 5.66275648,12.3037898 L2.28413472,6.72963633 Z M8.94820725,13.7065089 C8.84651813,13.6619825 8.73040415,13.6619825 8.62871503,13.7065089 L5.99996891,14.8585643 L3.3712228,13.7065089 C3.26953368,13.6619825 3.15341969,13.6619825 3.05173057,13.7065089 L1.23065285,14.5046177 L2.81421762,11.2072471 L3.81705699,10.76792 L4.9880829,12.699937 C5.20271503,13.0540672 5.58099482,13.2654987 5.99990674,13.2654987 C6.41881865,13.2654987 6.79709845,13.0540672 7.01173057,12.6999676 L8.18275648,10.7679506 L9.18568912,11.2074307 L10.7691606,14.5046483 L8.94820725,13.7065089 Z" id="Shape"></path>
                        <path d="M6.00012435,3.10941111 C5.01170984,3.10941111 4.20761658,3.90094041 4.20761658,4.87388034 C4.20761658,5.84682027 5.01170984,6.63834958 6.00012435,6.63834958 C6.98850777,6.63838018 7.79260104,5.84682027 7.79260104,4.87388034 C7.79260104,3.90094041 6.98850777,3.10941111 6.00012435,3.10941111 Z M6.00012435,5.86515107 C5.4448601,5.86518167 4.99308808,5.42052979 4.99308808,4.87388034 C4.99308808,4.3272921 5.44482902,3.88260962 6.00012435,3.88260962 C6.5553886,3.88260962 7.00712953,4.3272921 7.00712953,4.87388034 C7.00712953,5.42046859 6.5553886,5.86515107 6.00012435,5.86515107 Z" id="Shape"></path>
                    </g>
                </g>
            </g>
        </g>
    </g>
</svg>