<?xml version="1.0" encoding="UTF-8"?>
<svg width="32px" height="29px" viewBox="0 0 32 29" version="1.1" xmlns="http://www.w3.org/2000/svg" xmlns:xlink="http://www.w3.org/1999/xlink">
    <g id="mobile" stroke="none" stroke-width="1" fill="none" fill-rule="evenodd">
        <g id="search_job_page" transform="translate(-367.000000, -49.000000)" fill="#155D63" fill-rule="nonzero">
            <g id="23717" transform="translate(367.000000, 49.000000)">
                <path d="M13.3333333,0 L13.3333333,0 C20.6971667,0 26.6666667,4.83094444 26.6666667,10.7902222 C26.6666667,16.7495 20.6971667,21.5804444 13.3333333,21.5804444 C12.6261667,21.5804444 11.9320556,21.5354444 11.2546111,21.4496111 C8.39055556,24.3022222 5.08316667,24.8137222 1.77777778,24.8888889 L1.77777778,24.1907222 C3.56255556,23.3197778 5,21.7334444 5,19.9203889 C5,19.6674444 4.98022222,19.4191111 4.94361111,19.1761667 C1.92811111,17.1978889 0,14.1763889 0,10.7902222 C0,4.83094444 5.96955556,0 13.3333333,0 Z M27.6666667,24.1857222 C27.6666667,25.7397778 28.6753333,27.0995556 30.2222222,27.8460556 L30.2222222,28.4444444 C27.3576667,28.3800556 24.7281667,27.9416111 22.2461111,25.4965556 C21.6588889,25.5701111 21.0574444,25.6088333 20.4444444,25.6088333 C17.7925556,25.6088333 15.3497778,24.8933333 13.3996111,23.691 C17.4182778,23.6768889 21.2123333,22.3894444 24.0894444,20.0612222 C25.5397222,18.8875 26.6837222,17.5104444 27.4898333,15.9681667 C28.3443889,14.333 28.7777778,12.5908889 28.7777778,10.7902222 C28.7777778,10.5 28.7652778,10.2114444 28.7428333,9.92444444 C30.7586667,11.5892778 32,13.8583889 32,16.3599444 C32,19.2623889 30.329,21.8521667 27.7156111,23.5478889 C27.6838333,23.756 27.6666667,23.9688889 27.6666667,24.1857222 Z" id="Shape"></path>
            </g>
        </g>
    </g>
</svg>