<?xml version="1.0" encoding="UTF-8"?>
<svg width="25px" height="25px" viewBox="0 0 25 25" version="1.1" xmlns="http://www.w3.org/2000/svg" xmlns:xlink="http://www.w3.org/1999/xlink">
    <g id="mobile" stroke="none" stroke-width="1" fill="none" fill-rule="evenodd">
        <g id="search_job_page" transform="translate(-312.000000, -367.000000)" fill="#FFFFFF" fill-rule="nonzero">
            <g id="Group" transform="translate(18.000000, 100.000000)">
                <g id="939759" transform="translate(294.840000, 267.120000)">
                    <path d="M20.4215214,3.46601637 C18.1605473,1.23089941 15.1590698,0 11.97,0 C5.36971395,0 0,5.34876645 0,11.9232422 C0,15.1101612 1.24801277,18.1204759 3.51422367,20.399592 C5.78426871,22.6826824 8.78728922,23.94 11.97,23.94 C15.1506534,23.94 18.1541415,22.6738452 20.4272258,20.3748103 C21.5265488,19.2628628 22.3906799,17.9723939 22.9956325,16.5392202 C23.6222807,15.0546129 23.94,13.4858415 23.94,11.8764844 C23.94,8.6958777 22.6904442,5.70894188 20.4215214,3.46601637 Z M11.97,22.5372656 C6.14318168,22.5372656 1.40273437,17.7758241 1.40273437,11.9232422 C1.40273437,6.12223418 6.14318168,1.40273437 11.97,1.40273437 C17.7968183,1.40273437 22.5372656,6.10123992 22.5372656,11.8764844 C22.5372656,17.7548298 17.7968183,22.5372656 11.97,22.5372656 Z" id="Shape"></path>
                    <path d="M13.3727344,11.221875 L12.6713672,11.221875 L12.6713672,8.41640625 L13.3727344,8.41640625 C13.7594682,8.41640625 14.0741016,8.73103957 14.0741016,9.11777344 C14.0741016,9.50511516 14.388127,9.81914062 14.7754688,9.81914062 C15.1628105,9.81914062 15.4768359,9.50511516 15.4768359,9.11777344 C15.4768359,7.95757184 14.532936,7.01367188 13.3727344,7.01367188 L12.6713672,7.01367188 L12.6713672,6.31230469 C12.6713672,5.92496297 12.3573417,5.6109375 11.97,5.6109375 C11.5826583,5.6109375 11.2686328,5.92496297 11.2686328,6.31230469 L11.2686328,7.01367188 L10.5672656,7.01367188 C9.40706402,7.01367188 8.46316406,7.95757184 8.46316406,9.11777344 L8.46316406,10.5205078 C8.46316406,11.6807094 9.40706402,12.6246094 10.5672656,12.6246094 L11.2686328,12.6246094 L11.2686328,15.4300781 L10.5672656,15.4300781 C10.1805318,15.4300781 9.86589844,15.1154448 9.86589844,14.7287109 C9.86589844,14.3413692 9.55187297,14.0273438 9.16453125,14.0273438 C8.77718953,14.0273438 8.46316406,14.3413692 8.46316406,14.7287109 C8.46316406,15.8889125 9.40706402,16.8328125 10.5672656,16.8328125 L11.2686328,16.8328125 L11.2686328,17.5341797 C11.2686328,17.9215214 11.5826583,18.2355469 11.97,18.2355469 C12.3573417,18.2355469 12.6713672,17.9215214 12.6713672,17.5341797 L12.6713672,16.8328125 L13.3727344,16.8328125 C14.532936,16.8328125 15.4768359,15.8889125 15.4768359,14.7287109 L15.4768359,13.3259766 C15.4768359,12.165775 14.532936,11.221875 13.3727344,11.221875 Z M11.2686328,11.221875 L10.5672656,11.221875 C10.1805318,11.221875 9.86589844,10.9072417 9.86589844,10.5205078 L9.86589844,9.11777344 C9.86589844,8.73103957 10.1805318,8.41640625 10.5672656,8.41640625 L11.2686328,8.41640625 L11.2686328,11.221875 Z M14.0741016,14.7287109 C14.0741016,15.1154448 13.7594682,15.4300781 13.3727344,15.4300781 L12.6713672,15.4300781 L12.6713672,12.6246094 L13.3727344,12.6246094 C13.7594682,12.6246094 14.0741016,12.9392427 14.0741016,13.3259766 L14.0741016,14.7287109 Z" id="Shape"></path>
                </g>
            </g>
        </g>
    </g>
</svg>