<?xml version="1.0" encoding="UTF-8"?>
<svg width="92px" height="92px" viewBox="0 0 92 92" version="1.1" xmlns="http://www.w3.org/2000/svg" xmlns:xlink="http://www.w3.org/1999/xlink">
    <defs>
        <circle id="path-1" cx="33" cy="33" r="33"></circle>
        <filter x="-35.6%" y="-23.5%" width="171.2%" height="171.2%" filterUnits="objectBoundingBox" id="filter-2">
            <feOffset dx="0" dy="8" in="SourceAlpha" result="shadowOffsetOuter1"></feOffset>
            <feGaussianBlur stdDeviation="6.5" in="shadowOffsetOuter1" result="shadowBlurOuter1"></feGaussianBlur>
            <feColorMatrix values="0 0 0 0 0   0 0 0 0 0   0 0 0 0 0  0 0 0 0.0744735054 0" type="matrix" in="shadowBlurOuter1"></feColorMatrix>
        </filter>
    </defs>
    <g id="mobile" stroke="none" stroke-width="1" fill="none" fill-rule="evenodd">
        <g id="liked_job_page" transform="translate(-164.000000, -1107.000000)">
            <g id="Group-3" transform="translate(177.000000, 1112.000000)">
                <g id="Oval">
                    <use fill="black" fill-opacity="1" filter="url(#filter-2)" xlink:href="#path-1"></use>
                    <use fill="#FFFFFF" fill-rule="evenodd" xlink:href="#path-1"></use>
                </g>
                <g id="25274" transform="translate(15.600000, 13.200000)" fill="#155D63" fill-rule="nonzero">
                    <path d="M22.2039574,6.57038298 L16.9571489,11.8168085 C16.6549787,12.1193617 16.1628511,12.1193617 15.8595319,11.8168085 L15.7840851,11.7394468 L15.7840851,7.87710638 C9.44846809,8.31982979 4.42876596,13.6122128 4.42876596,20.0581277 C4.42876596,24.5849362 6.91314894,28.7199574 10.9152766,30.8485532 C11.9228936,31.3854894 12.3058723,32.6374468 11.7704681,33.6481277 C11.2331489,34.6572766 9.98157447,35.0398723 8.97242553,34.5025532 C3.61723404,31.6531915 0.290297872,26.1195319 0.290297872,20.0581277 C0.290297872,11.3292766 7.16591489,4.176 15.7844681,3.72753191 L15.7844681,0.303319149 L15.8599149,0.227106383 C16.163234,-0.0754468085 16.6553617,-0.0754468085 16.9575319,0.227106383 L22.2039574,5.47238298 C22.5080426,5.77646809 22.5080426,6.26897872 22.2039574,6.57038298 Z" id="Shape"></path>
                    <path d="M19.2155745,39.0105957 L13.9699149,33.7657021 C13.6665957,33.4631489 13.6665957,32.9714043 13.9699149,32.6688511 L19.2155745,27.4239574 C19.5185106,27.1198723 20.0098723,27.1198723 20.3139574,27.4239574 L20.3871064,27.4997872 L20.3897872,31.3609787 C26.7227234,30.9190213 31.7451064,25.6281702 31.7451064,19.1811064 C31.7451064,14.6542979 29.2591915,10.5204255 25.2578298,8.39068085 C24.2486809,7.85451064 23.8657021,6.60025532 24.4022553,5.59110638 C24.9407234,4.58195745 26.1938298,4.1993617 27.2025957,4.73668085 C32.5562553,7.58604255 35.8843404,13.1208511 35.8843404,19.1811064 C35.8843404,27.9107234 29.0087234,35.0628511 20.3901702,35.5097872 L20.3901702,38.934383 L20.3143404,39.0102128 C20.0098723,39.3135319 19.5185106,39.3135319 19.2155745,39.0105957 Z" id="Shape"></path>
                </g>
            </g>
        </g>
    </g>
</svg>