<?xml version="1.0" encoding="UTF-8"?>
<svg width="86px" height="87px" viewBox="0 0 86 87" version="1.1" xmlns="http://www.w3.org/2000/svg" xmlns:xlink="http://www.w3.org/1999/xlink">
    <defs>
        <ellipse id="path-1" cx="30.3387097" cy="30.5" rx="30.3387097" ry="30.5"></ellipse>
        <filter x="-38.7%" y="-25.4%" width="177.5%" height="177.0%" filterUnits="objectBoundingBox" id="filter-2">
            <feOffset dx="0" dy="8" in="SourceAlpha" result="shadowOffsetOuter1"></feOffset>
            <feGaussianBlur stdDeviation="6.5" in="shadowOffsetOuter1" result="shadowBlurOuter1"></feGaussianBlur>
            <feColorMatrix values="0 0 0 0 0   0 0 0 0 0   0 0 0 0 0  0 0 0 0.0744735054 0" type="matrix" in="shadowBlurOuter1"></feColorMatrix>
        </filter>
    </defs>
    <g id="mobile" stroke="none" stroke-width="1" fill="none" fill-rule="evenodd">
        <g id="job_matched_page" transform="translate(-114.000000, -627.000000)">
            <g id="Group-3" transform="translate(127.000000, 632.000000)">
                <g id="Group-5">
                    <g id="Oval">
                        <use fill="black" fill-opacity="1" filter="url(#filter-2)" xlink:href="#path-1"></use>
                        <use fill="#FFFFFF" fill-rule="evenodd" xlink:href="#path-1"></use>
                    </g>
                    <g id="128397" transform="translate(16.548387, 16.636364)" fill="#FFC629" fill-rule="nonzero">
                        <path d="M17.6766862,14.2417355 C17.4259531,13.9896694 17.4259531,13.6115702 17.6766862,13.3595041 L27.0791789,3.90702479 C27.329912,3.65495868 27.4552786,3.2768595 27.4552786,3.02479339 C27.4552786,2.77272727 27.329912,2.3946281 27.0791789,2.14256198 L25.3240469,0.378099174 C25.0733138,0.126033058 24.6972141,0 24.4464809,0 C24.0703812,0 23.8196481,0.126033058 23.568915,0.378099174 L14.1664223,9.83057851 C13.9156891,10.0826446 13.5395894,10.0826446 13.2888563,9.83057851 L3.88636364,0.378099174 C3.6356305,0.126033058 3.25953079,0 3.00879765,0 C2.75806452,0 2.38196481,0.126033058 2.13123167,0.378099174 L0.376099707,2.14256198 C0.125366569,2.3946281 0,2.77272727 0,3.02479339 C0,3.2768595 0.125366569,3.65495868 0.376099707,3.90702479 L9.77859238,13.3595041 C10.0293255,13.6115702 10.0293255,13.9896694 9.77859238,14.2417355 L0.376099707,23.6942149 C0.125366569,23.946281 0,24.3243802 0,24.5764463 C0,24.8285124 0.125366569,25.2066116 0.376099707,25.4586777 L2.13123167,27.2231405 C2.38196481,27.4752066 2.75806452,27.6012397 3.00879765,27.6012397 C3.25953079,27.6012397 3.6356305,27.4752066 3.88636364,27.2231405 L13.2888563,17.7706612 C13.5395894,17.518595 13.9156891,17.518595 14.1664223,17.7706612 L23.568915,27.2231405 C23.8196481,27.4752066 24.1957478,27.6012397 24.4464809,27.6012397 C24.6972141,27.6012397 25.0733138,27.4752066 25.3240469,27.2231405 L27.0791789,25.4586777 C27.329912,25.2066116 27.4552786,24.8285124 27.4552786,24.5764463 C27.4552786,24.3243802 27.329912,23.946281 27.0791789,23.6942149 L17.6766862,14.2417355 Z" id="Shape"></path>
                    </g>
                </g>
            </g>
        </g>
    </g>
</svg>