<?xml version="1.0" encoding="UTF-8"?>
<svg width="42px" height="36px" viewBox="0 0 42 36" version="1.1" xmlns="http://www.w3.org/2000/svg" xmlns:xlink="http://www.w3.org/1999/xlink">
    <g id="mobile" stroke="none" stroke-width="1" fill="none" fill-rule="evenodd">
        <g id="search_job_page" transform="translate(-186.000000, -46.000000)" fill="#155D63" fill-rule="nonzero">
            <g id="53041" transform="translate(186.000000, 46.000000)">
                <path d="M15.6811655,2.21887617 L19.6145682,2.21887617 C21.1180458,2.21887617 22.3723642,3.29837669 22.6477024,4.71877211 L24.8547784,4.71877211 C24.5619584,2.08776275 22.3242893,0.0336524454 19.6145682,0.0336524454 L15.6811655,0.0336524454 C12.971488,0.0336524454 10.7338189,2.08776275 10.4366285,4.71877211 L12.6437045,4.71877211 C12.9277836,3.29837669 14.182102,2.21887617 15.6811655,2.21887617 Z" id="Shape"></path>
                <path d="M4.22189594,27.2309469 L24.3522206,27.2309469 C24.2560708,26.723975 24.2079958,26.2038918 24.2079958,25.6706972 C24.2079958,21.0336524 27.9840187,17.2575858 32.6211072,17.2575858 C33.5432716,17.2575858 34.4348429,17.4061811 35.2652279,17.6815193 L35.2652279,10.6276171 C35.0772549,11.0165869 34.8587326,11.4011863 34.6140312,11.7814152 C33.6612737,13.2411446 32.3020645,14.543538 30.5844787,15.6536753 C27.9053944,17.3843725 24.5532612,18.5163184 20.9170052,18.9358814 L20.9170052,19.3117399 L20.9170052,20.3256837 C20.9170052,21.9820832 19.5709074,23.3281811 17.9145515,23.3281811 L17.3943809,23.3281811 C15.7379813,23.3281811 14.3918835,21.9820832 14.3918835,20.3256837 L14.3918835,19.3117399 L14.3918835,18.9358814 C10.7600416,18.511948 7.40353798,17.3843725 4.72445369,15.6536753 C3.0024974,14.5435817 1.64765869,13.2411883 0.694901145,11.7814152 C0.44578564,11.4011863 0.231633715,11.0209573 0.0436740364,10.6276171 L0.0437044745,23.0484287 C0.0349635796,25.3603954 1.90992924,27.2309469 4.22189594,27.2309469 Z" id="Shape"></path>
                <path d="M5.66851405,14.1851613 C8.85457024,16.2436857 13.1113861,17.3800021 17.6479105,17.3800021 C22.184435,17.3800021 26.4412945,16.2480562 29.6273507,14.1851613 C32.4943642,12.3320916 34.1551342,9.94582726 34.364872,7.41096774 C33.6000437,6.44072841 32.411282,5.81575442 31.0782955,5.81575442 L24.8897419,5.81575442 L22.7045182,5.81575442 L12.5912591,5.81575442 L10.4060354,5.81575442 L4.22185224,5.81575442 C2.88886576,5.81575442 1.70010406,6.44072841 0.935275754,7.41096774 C1.14073049,9.94145682 2.80150052,12.3320916 5.66851405,14.1851613 Z" id="Shape"></path>
                <path d="M39.6050385,30.3558169 L39.2116982,29.9581061 L38.9625827,29.7046202 C38.9145078,29.6565016 38.8664329,29.6127971 38.8139875,29.5690926 C39.5264142,28.4415172 39.9371925,27.104204 39.9371925,25.6750239 C39.9371925,23.0046368 38.499359,20.6621207 36.3534256,19.3815796 C36.1742373,19.2766889 35.9950489,19.1761686 35.8071197,19.0843892 C35.6279313,18.9969802 35.448743,18.9182685 35.2608137,18.8440146 C34.4391696,18.5249282 33.5475983,18.3501103 32.616693,18.3501103 C28.5784433,18.3501103 25.2961935,21.63236 25.2961935,25.6706098 C25.2961935,26.2038044 25.3530094,26.7282581 25.4622706,27.2308595 C25.5016046,27.4144183 25.5496795,27.5979771 25.6021249,27.7771655 C25.6589407,27.9607242 25.720127,28.144283 25.7900541,28.3234714 C26.8564433,31.055001 29.5093486,32.9911093 32.6123663,32.9911093 C34.0415026,32.9911093 35.3788595,32.5803309 36.506435,31.867948 C36.5413985,31.9116524 36.5807326,31.9553569 36.6201103,31.9990614 L36.8910343,32.2743996 L37.2800042,32.6721103 L39.1592966,34.5819958 C39.4783392,34.9097794 39.9022726,35.071486 40.326206,35.071486 C40.7413985,35.071486 41.1565911,34.9141061 41.4756337,34.5994776 C42.1224599,33.9657627 42.1312008,32.9255525 41.497486,32.2831405 L39.6050385,30.3558169 Z M32.616693,30.8103434 C30.9428117,30.8103434 29.4525328,30.0061811 28.5128866,28.7606035 C28.4604412,28.6906764 28.4079958,28.6163788 28.3555068,28.5420812 C28.3074318,28.472154 28.2637274,28.3978564 28.2200229,28.3279729 C28.1981707,28.2886389 28.1763184,28.2536753 28.1544662,28.2142976 C28.0757981,28.0744433 28.0015005,27.9302185 27.9359438,27.781667 C27.8572758,27.6068491 27.7873486,27.4232903 27.7261623,27.2353611 C27.5687825,26.7414568 27.4857877,26.2214173 27.4857877,25.6751113 C27.4857877,22.8430614 29.7889698,20.5398356 32.6210635,20.5398356 C33.5869324,20.5398356 34.491615,20.8064329 35.2651842,21.2740708 C35.4574402,21.3877024 35.6366722,21.5144454 35.8114901,21.6542997 C35.9207513,21.7417086 36.0300125,21.833488 36.1305328,21.9296379 C36.1916753,21.9864537 36.2529053,22.04764 36.3140916,22.1088262 C36.3272029,22.1219813 36.344641,22.1394194 36.357796,22.1525307 C36.6025411,22.4103871 36.816693,22.6944662 37.0046223,22.9960708 C37.4809573,23.7740104 37.7563392,24.6918044 37.7563392,25.6707409 C37.7519688,28.5071176 35.448743,30.8103434 32.616693,30.8103434 Z" id="Shape"></path>
            </g>
        </g>
    </g>
</svg>