<?xml version="1.0" encoding="UTF-8"?>
<svg width="16px" height="16px" viewBox="0 0 16 16" version="1.1" xmlns="http://www.w3.org/2000/svg" xmlns:xlink="http://www.w3.org/1999/xlink">
    <g id="mobile" stroke="none" stroke-width="1" fill="none" fill-rule="evenodd">
        <g id="job_applicant_on_boarding_page_-_step_05" transform="translate(-42.000000, -387.000000)" fill-rule="nonzero">
            <g id="753345" transform="translate(42.000000, 387.000000)">
                <circle id="Oval" fill="#E4E6F7" cx="7.98442105" cy="7.98442105" r="7.98442105"></circle>
                <path d="M11.6272982,11.6272982 C11.3278947,11.9267018 10.8288421,11.9267018 10.5294386,11.6272982 L7.98442105,9.0822807 L5.43940351,11.6272982 C5.14,11.9267018 4.64094737,11.9267018 4.34154386,11.6272982 C4.04214035,11.3278947 4.04214035,10.8288421 4.34154386,10.5294386 L6.8865614,7.98442105 L4.34154386,5.43940351 C4.04214035,5.14 4.04214035,4.64094737 4.34154386,4.34154386 C4.64094737,4.04214035 5.14,4.04214035 5.43940351,4.34154386 L7.98442105,6.8865614 L10.5294386,4.34154386 C10.8288421,4.04214035 11.3278947,4.04214035 11.6272982,4.34154386 C11.9267018,4.64094737 11.9267018,5.14 11.6272982,5.43940351 L9.0822807,7.98442105 L11.6272982,10.5294386 C11.9267018,10.8288421 11.9267018,11.3278596 11.6272982,11.6272982 Z" id="Shape" fill="#FFFFFF"></path>
            </g>
        </g>
    </g>
</svg>