<?xml version="1.0" encoding="UTF-8"?>
<svg width="23px" height="21px" viewBox="0 0 23 21" version="1.1" xmlns="http://www.w3.org/2000/svg" xmlns:xlink="http://www.w3.org/1999/xlink">
    <g id="mobile" stroke="none" stroke-width="1" fill="none" fill-rule="evenodd">
        <g id="search_job_page" transform="translate(-82.000000, -369.000000)" fill="#FFFFFF" fill-rule="nonzero">
            <g id="Group" transform="translate(18.000000, 100.000000)">
                <g id="1063376" transform="translate(64.260000, 269.640000)">
                    <path d="M22.0196997,2.62517089 C22.0183154,2.62517089 22.0169312,2.625 22.0155469,2.625 L15.9911719,2.625 L15.9911719,1.96875 C15.9911719,0.883203125 15.0969287,0 13.9978125,0 L8.6821875,0 C7.58307129,0 6.68882812,0.883203125 6.68882812,1.96875 L6.68882812,2.625 L0.664453125,2.625 C0.294505027,2.625 0,2.92441406 0,3.28125 L0,17.71875 C0,18.8042969 0.894243164,19.6875 1.99335938,19.6875 L20.6866406,19.6875 C21.7857568,19.6875 22.68,18.8042969 22.68,17.71875 L22.68,3.29509276 C22.68,3.29423828 22.68,3.2933838 22.68,3.29252927 C22.6545639,2.86152344 22.3861872,2.62756349 22.0196997,2.62517089 Z M8.01773437,1.96875 C8.01773437,1.60695802 8.31587312,1.3125 8.6821875,1.3125 L13.9978125,1.3125 C14.3641269,1.3125 14.6622656,1.60695802 14.6622656,1.96875 L14.6622656,2.625 L8.01773437,2.625 L8.01773437,1.96875 Z M21.0936182,3.9375 L19.0301798,10.0512207 C18.9396826,10.3197021 18.6863599,10.5 18.3999875,10.5 L14.6622656,10.5 L14.6622656,9.84375 C14.6622656,9.48127443 14.364819,9.1875 13.9978125,9.1875 L8.6821875,9.1875 C8.31518098,9.1875 8.01773437,9.48127443 8.01773437,9.84375 L8.01773437,10.5 L4.28001252,10.5 C3.99364014,10.5 3.74031738,10.3197021 3.64982024,10.0512207 L1.58638184,3.9375 L21.0936182,3.9375 Z M13.3333594,10.5 L13.3333594,11.8125 L9.34664062,11.8125 L9.34664062,10.5 L13.3333594,10.5 Z M21.3510938,17.71875 C21.3510938,18.080542 21.052955,18.375 20.6866406,18.375 L1.99335937,18.375 C1.62704499,18.375 1.32890625,18.080542 1.32890625,17.71875 L1.32890625,7.32521974 L2.38908967,10.466333 C2.66075408,11.2716065 3.42072234,11.8125 4.28001252,11.8125 L8.01773437,11.8125 L8.01773437,12.46875 C8.01773437,12.8312256 8.31518098,13.125 8.6821875,13.125 L13.9978125,13.125 C14.364819,13.125 14.6622656,12.8312256 14.6622656,12.46875 L14.6622656,11.8125 L18.3999875,11.8125 C19.2592777,11.8125 20.0192459,11.2716065 20.2909103,10.466333 L21.3510938,7.32521974 L21.3510938,17.71875 Z" id="Shape"></path>
                </g>
            </g>
        </g>
    </g>
</svg>